<svg xmlns="http://www.w3.org/2000/svg" viewBox="0 0 1500 1500"><defs><style>.cls-1{fill:#9b59b6;}.cls-2{fill:#fff;}</style></defs><title>logo</title><g id="Layer_2" data-name="Layer 2"><g id="Layer_1-2" data-name="Layer 1"><g id="Logo"><g id="bg"><rect class="cls-1" width="1500" height="1500" rx="200" ry="200"/></g><g id="Sign"><g id="Left_Arrow" data-name="Left Arrow"><polygon class="cls-2" points="1250 646.66 1250 746.66 250 746.66 250 746.23 252.53 744.76 422.44 646.66 1250 646.66"/><polygon class="cls-2" points="649.18 450.33 562.23 646.66 517.95 746.66 256.81 746.66 252.53 744.76 250.33 743.79 250.28 743.25 250.25 743.03 250.44 742.89 432.4 609.38 649.18 450.33"/></g><g id="Left_Arrow-2" data-name="Left Arrow"><rect class="cls-2" x="249.91" y="831.06" width="622.12" height="100"/><polygon class="cls-2" points="1249.91 831.05 1249.91 831.29 1249.5 831.05 1249.91 831.05"/><polygon class="cls-2" points="1249.91 831.29 1249.91 831.5 1077.47 931.05 872.03 931.05 872.03 831.05 1249.5 831.05 1249.91 831.29"/><polygon class="cls-2" points="872.03 931.05 1077.47 931.05 872.03 1049.66 872.03 931.05"/><polygon class="cls-2" points="1250.09 831.39 1249.91 831.5 1249.91 831.29 1250.09 831.39"/></g></g></g></g></g></svg>